<?xml version="1.0" standalone="no"?>
<!DOCTYPE svg PUBLIC "-//W3C//DTD SVG 20010904//EN"
 "http://www.w3.org/TR/2001/REC-SVG-20010904/DTD/svg10.dtd">
<svg version="1.0" xmlns="http://www.w3.org/2000/svg"
 width="600.000000pt" height="600.000000pt" viewBox="0 0 600.000000 600.000000"
 preserveAspectRatio="xMidYMid meet">
<metadata>
Created by potrace 1.14, written by Peter Selinger 2001-2017
</metadata>
<g transform="translate(0.000000,600.000000) scale(0.100000,-0.100000)"
fill="#000000" stroke="none">
<path d="M3959 5937 c6 -6 11 -16 11 -21 0 -6 -5 -4 -10 4 -8 13 -12 12 -27
-4 -10 -10 -13 -16 -6 -12 6 3 14 2 18 -4 3 -5 -1 -10 -9 -10 -8 0 -18 -5 -22
-12 -4 -7 -3 -8 4 -4 7 4 12 3 12 -2 0 -6 -7 -12 -15 -16 -8 -3 -15 -11 -15
-18 0 -10 3 -9 9 1 7 10 9 7 8 -12 -1 -14 -5 -23 -9 -20 -5 2 -9 -2 -10 -9 0
-7 -2 -17 -3 -23 -2 -5 -3 -14 -4 -20 -1 -5 -6 -3 -12 5 -9 13 -10 13 -6 0 2
-8 9 -15 15 -15 5 0 14 -3 18 -7 4 -5 0 -8 -10 -8 -11 0 -14 -4 -10 -12 4 -7
8 -24 8 -38 1 -14 5 -31 9 -37 5 -8 4 -13 -2 -13 -6 0 -11 5 -11 10 0 6 -5 10
-10 10 -7 0 -7 -6 0 -20 7 -14 7 -20 0 -20 -5 0 -10 6 -10 13 0 8 -4 7 -10 -3
-8 -13 -10 -13 -10 1 0 12 -8 15 -26 13 -20 -2 -24 0 -15 9 6 6 11 15 11 20 0
5 -7 1 -16 -8 -16 -15 -19 -15 -41 12 -14 15 -22 22 -18 16 9 -19 -6 -16 -22
5 -8 9 -12 12 -9 6 3 -6 -1 -11 -8 -11 -8 0 -12 6 -9 14 4 11 0 11 -22 3 -26
-10 -27 -9 -14 7 9 11 10 14 2 9 -7 -4 -13 -2 -13 3 0 6 -4 11 -10 11 -5 0 -7
-8 -3 -17 5 -15 3 -14 -10 2 -8 11 -13 24 -10 29 4 5 1 6 -6 2 -6 -4 -9 -11
-6 -16 3 -5 0 -12 -6 -16 -7 -4 -9 -3 -5 4 3 6 2 13 -4 17 -6 4 -7 12 -3 18 4
7 0 6 -10 -2 -19 -15 -23 -26 -5 -15 7 4 8 3 4 -5 -4 -6 -12 -9 -17 -5 -5 3
-6 10 -3 16 5 7 1 9 -9 5 -12 -4 -15 -1 -11 11 5 14 3 13 -10 -2 -15 -18 -20
-14 -18 15 0 3 -10 5 -23 5 -13 0 -21 -4 -19 -8 3 -5 10 -5 16 -2 7 5 8 2 4
-5 -6 -9 -12 -9 -24 2 -10 8 -27 13 -39 12 -12 -1 -20 2 -17 7 3 4 -1 8 -10 8
-8 0 -17 -6 -20 -12 -3 -7 -3 -2 0 12 5 24 4 24 -10 6 -15 -19 -16 -19 -16 -1
0 17 -1 17 -18 2 -15 -14 -19 -15 -19 -2 0 8 4 12 9 9 4 -3 5 2 1 11 -4 13 -8
14 -14 4 -4 -7 -15 -14 -23 -15 -9 -1 -13 2 -10 8 4 6 -2 8 -16 3 -15 -5 -20
-4 -16 4 4 6 2 11 -3 11 -6 0 -11 -4 -11 -8 0 -16 -40 -11 -41 6 0 11 -2 13
-6 4 -4 -10 -9 -9 -24 4 -17 15 -19 15 -25 1 -3 -9 -12 -13 -21 -10 -8 3 -19
0 -25 -8 -8 -11 -9 -10 -4 4 3 9 2 17 -2 18 -4 0 -15 2 -24 4 -10 2 -18 0 -18
-4 0 -4 -7 -8 -15 -8 -8 0 -15 3 -15 7 0 3 -11 6 -24 6 -14 0 -22 -4 -20 -8 3
-4 0 -8 -5 -8 -6 0 -11 6 -11 13 0 8 -4 7 -10 -3 -7 -11 -10 -11 -10 -2 0 7
-5 10 -10 7 -6 -4 -7 -11 -4 -17 4 -7 2 -8 -5 -4 -6 4 -9 12 -6 17 4 5 1 9 -4
9 -6 0 -11 -5 -11 -12 0 -6 -10 -3 -22 8 -22 19 -22 19 -8 0 14 -18 14 -19 -9
-7 -13 7 -21 8 -17 3 4 -6 -2 -10 -14 -9 -13 1 -19 6 -15 16 4 11 3 12 -10 1
-8 -7 -12 -17 -8 -23 4 -6 1 -7 -6 -3 -7 5 -10 15 -7 25 3 9 -1 6 -10 -6 -15
-21 -17 -21 -40 -7 -22 15 -24 15 -30 0 -5 -12 -10 -13 -25 -5 -15 8 -19 6
-19 -8 -1 -14 -4 -13 -16 7 -8 14 -13 17 -10 8 5 -19 -24 -35 -34 -18 -4 6
-14 8 -23 4 -9 -3 -14 -10 -11 -15 3 -5 -2 -6 -10 -3 -9 3 -13 11 -9 17 3 6 1
7 -5 3 -7 -4 -12 -15 -12 -24 0 -14 -2 -15 -9 -3 -8 12 -12 12 -25 2 -9 -8
-16 -10 -16 -6 0 5 -10 0 -22 -11 l-21 -19 19 30 18 30 -20 -17 c-23 -20 -49
-24 -38 -6 5 7 3 8 -5 4 -7 -5 -10 -14 -8 -20 4 -9 -7 -12 -34 -12 -21 1 -39
-3 -39 -7 0 -4 -9 -3 -20 3 -17 9 -19 8 -13 -7 6 -16 5 -17 -12 -3 -17 14 -17
13 -10 -10 8 -25 7 -25 -13 -7 -15 14 -22 15 -28 6 -5 -8 -3 -10 6 -4 9 6 11
4 5 -4 -4 -7 -18 -11 -30 -9 -18 4 -22 1 -17 -11 5 -14 4 -14 -13 -1 -11 9
-16 10 -11 3 4 -7 3 -13 -1 -13 -5 0 -15 6 -22 13 -10 10 -11 9 -6 -4 4 -12 0
-15 -17 -14 -33 3 -48 -5 -48 -24 0 -9 -3 -12 -8 -6 -11 16 -41 15 -35 -1 3
-8 10 -11 16 -7 6 4 7 1 3 -6 -6 -9 -13 -8 -27 5 -19 17 -20 17 -13 -1 6 -15
4 -17 -15 -12 -19 5 -20 3 -9 -10 11 -14 10 -15 -11 -8 -20 6 -23 4 -18 -9 8
-20 3 -20 -16 -1 -13 13 -16 13 -21 -1 -4 -10 -2 -13 6 -8 7 4 8 3 4 -5 -6 -9
-11 -9 -24 1 -9 7 -13 8 -9 2 9 -16 -24 -42 -50 -39 -13 1 -31 -7 -40 -18 -10
-11 -12 -17 -6 -13 9 5 11 2 7 -9 -6 -14 -8 -14 -21 2 -14 17 -14 17 -10 -4 4
-20 2 -21 -14 -13 -15 9 -17 8 -12 -6 4 -12 3 -15 -6 -10 -6 4 -18 2 -26 -4
-8 -6 -20 -8 -27 -4 -7 4 -10 4 -6 -1 4 -4 2 -15 -5 -24 -7 -8 3 -5 23 8 l35
23 -30 -26 c-23 -20 -32 -23 -44 -13 -12 9 -13 9 -7 0 5 -9 1 -13 -11 -13 -15
0 -16 -2 -3 -10 12 -8 11 -10 -7 -10 -12 0 -25 -5 -28 -10 -4 -6 -11 -8 -16
-5 -5 3 -6 -1 -3 -9 3 -9 1 -16 -6 -16 -17 0 -40 -26 -32 -36 4 -5 0 -3 -8 3
-12 9 -20 5 -41 -18 -15 -16 -24 -29 -21 -29 3 0 -3 -9 -13 -20 -10 -11 -23
-20 -30 -20 -6 0 -24 -14 -41 -32 -16 -17 -23 -28 -15 -23 9 5 12 3 10 -4 -3
-7 -8 -12 -13 -11 -5 1 -13 -5 -18 -14 -5 -9 -13 -14 -18 -11 -4 3 -6 -4 -3
-15 4 -16 2 -19 -11 -14 -9 3 -16 1 -16 -5 0 -6 5 -11 11 -11 5 0 7 -5 4 -11
-4 -6 -13 -8 -20 -5 -9 3 -12 -2 -10 -14 2 -12 -7 -29 -25 -44 -16 -13 -26
-27 -22 -30 3 -4 -4 -9 -17 -13 -12 -3 -20 -11 -17 -18 5 -14 -19 -14 -31 0
-4 4 -2 5 6 0 10 -6 12 -4 7 4 -6 9 -12 9 -24 -1 -10 -7 -14 -8 -10 -4 14 16
-25 35 -46 24 -15 -8 -18 -7 -13 5 8 21 -3 29 -21 14 -13 -9 -14 -9 -8 1 5 8
0 12 -14 12 -12 0 -19 3 -17 8 3 4 -1 13 -9 20 -8 7 -14 9 -14 4 0 -5 -7 -9
-15 -9 -11 0 -12 4 -3 14 8 10 7 12 -5 8 -8 -4 -18 -1 -23 6 -5 8 -3 10 7 4
12 -7 12 -6 1 6 -7 8 -17 15 -22 15 -6 1 -14 2 -20 3 -5 0 -10 6 -10 12 0 5 5
7 12 3 6 -4 8 -3 4 4 -3 6 -15 9 -26 7 -12 -2 -18 0 -15 6 4 5 -1 16 -10 25
-9 9 -13 19 -10 22 3 4 10 0 15 -8 6 -10 10 -11 10 -3 0 7 -9 17 -19 23 -11 5
-20 18 -19 28 0 9 -3 27 -6 40 -3 12 -1 20 4 17 5 -3 12 0 16 6 4 7 3 9 -2 6
-6 -3 -16 -2 -24 4 -12 7 -12 9 3 9 10 0 15 5 12 10 -4 6 -1 18 7 27 11 15 11
16 -4 10 -23 -8 -23 -2 1 22 16 16 18 26 11 50 -6 23 -5 29 5 25 7 -3 16 0 21
7 4 7 3 10 -4 5 -6 -4 -10 1 -9 13 0 11 6 17 14 14 7 -3 13 0 13 6 0 6 -4 11
-10 11 -5 0 -10 4 -10 10 0 5 6 7 14 4 8 -3 17 0 22 7 4 8 3 10 -5 5 -7 -5
-10 -2 -9 5 2 8 -8 14 -25 14 -16 1 -33 7 -38 15 -8 12 -9 11 -7 -4 2 -10 -3
-21 -11 -24 -9 -3 -11 0 -6 9 15 25 -3 4 -29 -33 -14 -21 -26 -45 -28 -55 -2
-10 -7 -21 -13 -25 -6 -5 -5 -8 4 -8 11 0 11 -3 0 -17 -11 -13 -11 -17 -1 -21
9 -3 10 -7 2 -17 -8 -9 -8 -15 0 -20 5 -3 10 -12 10 -18 0 -7 -4 -6 -10 3 -8
13 -10 12 -10 -2 0 -10 6 -18 13 -18 7 -1 5 -6 -6 -14 -15 -12 -16 -14 -2 -20
8 -3 15 -10 15 -16 0 -6 -4 -9 -8 -6 -5 3 -9 -2 -9 -10 0 -8 5 -13 12 -10 7 2
10 -6 7 -25 -3 -19 0 -29 8 -29 9 0 9 -4 2 -13 -12 -14 10 -51 24 -39 4 4 2
-1 -5 -10 -9 -12 -10 -18 -2 -18 6 0 11 -9 11 -19 0 -10 7 -22 16 -25 15 -6
15 -8 -1 -26 -16 -18 -16 -18 6 -13 15 4 20 3 15 -5 -4 -7 -1 -12 6 -13 7 0 4
-4 -7 -9 -18 -8 -18 -9 -2 -9 12 -1 16 -5 11 -13 -5 -9 -2 -8 9 1 10 8 20 11
24 7 3 -3 1 -6 -5 -6 -7 0 -12 -7 -12 -16 0 -8 5 -12 10 -9 6 3 10 -4 10 -15
0 -13 8 -24 20 -27 11 -3 20 -10 20 -15 0 -5 5 -6 10 -3 6 3 10 0 10 -8 0 -8
7 -18 16 -21 10 -4 13 -2 9 7 -4 6 0 4 8 -5 8 -10 17 -15 21 -11 4 4 4 -1 0
-12 -6 -17 -5 -18 7 -7 11 10 17 7 34 -15 17 -20 24 -23 30 -13 6 9 4 11 -5 5
-9 -6 -11 -4 -6 4 6 9 12 9 25 -3 14 -13 20 -13 31 -3 8 6 7 3 -3 -9 -9 -11
-14 -24 -10 -29 5 -4 3 -5 -3 -2 -10 6 -22 -8 -29 -35 -2 -5 -4 -10 -5 -13 -1
-3 -3 -8 -4 -12 -1 -5 -5 -14 -10 -22 -6 -9 -5 -12 1 -8 6 4 13 0 16 -8 4 -9
1 -12 -9 -8 -17 6 -18 -8 -1 -26 10 -10 9 -11 -5 -6 -13 5 -16 2 -13 -14 2
-13 -3 -25 -16 -31 -11 -7 -17 -16 -12 -23 11 -18 11 -47 0 -54 -6 -3 -7 -1
-3 5 3 6 1 14 -6 18 -7 4 -10 4 -6 0 4 -5 3 -19 -3 -33 -5 -13 -5 -22 0 -19 4
3 6 -6 3 -19 -2 -14 -11 -25 -21 -25 -13 0 -13 -2 -2 -9 10 -6 10 -10 1 -16
-8 -5 -6 -13 7 -27 18 -21 18 -21 -7 -8 l-25 13 20 -23 c11 -13 14 -20 8 -16
-7 4 -13 2 -13 -4 0 -6 -6 -8 -12 -4 -10 6 -10 4 0 -7 14 -16 16 -43 2 -34 -5
3 -10 1 -10 -4 0 -6 6 -11 13 -11 8 0 7 -3 -3 -9 -8 -6 -18 -7 -24 -4 -5 3 -6
1 -2 -5 4 -6 12 -9 20 -6 7 3 13 -2 13 -10 0 -8 -5 -12 -11 -10 -6 2 -11 -7
-11 -20 0 -13 2 -23 5 -21 3 2 6 -9 5 -25 0 -15 -3 -26 -6 -24 -4 2 -12 -3
-19 -11 -11 -13 -10 -14 1 -10 10 4 15 -2 16 -15 1 -11 -2 -18 -8 -15 -13 8
-11 -9 2 -22 7 -7 7 -13 0 -17 -5 -4 -7 -14 -4 -23 4 -9 2 -14 -3 -11 -5 4 -9
-9 -9 -28 0 -21 5 -34 13 -34 7 0 10 -5 7 -10 -4 -6 -10 -8 -14 -6 -4 3 -7 -6
-7 -19 0 -13 4 -21 8 -19 5 3 5 10 2 16 -5 7 -2 8 5 4 9 -6 9 -12 -2 -24 -8
-10 -12 -23 -10 -30 3 -7 -1 -20 -9 -29 -11 -15 -11 -16 4 -10 17 6 17 2 1
-40 -9 -26 -11 -83 -2 -89 5 -2 6 5 4 16 -2 11 1 20 7 20 5 0 8 -7 4 -15 -3
-8 0 -15 7 -15 7 -1 1 -8 -13 -16 -14 -8 -17 -13 -8 -10 10 3 20 1 23 -4 4 -6
-2 -10 -12 -11 -14 0 -15 -2 -3 -7 8 -4 16 -13 18 -20 1 -8 -2 -11 -9 -6 -9 5
-10 2 -6 -10 4 -10 3 -15 -4 -11 -12 8 -38 -12 -35 -28 1 -7 6 -18 10 -26 7
-11 5 -13 -9 -7 -16 6 -16 4 -4 -11 12 -15 12 -16 -4 -10 -10 4 -16 3 -12 -2
3 -6 -3 -14 -12 -20 -10 -6 -13 -11 -7 -11 5 0 15 5 22 12 9 9 12 9 12 -1 0
-7 4 -10 8 -7 4 2 8 -3 8 -13 0 -10 -6 -18 -12 -18 -7 0 -10 7 -7 16 4 14 4
14 -6 1 -15 -21 -14 -30 4 -30 9 0 12 -6 8 -17 -5 -12 -3 -14 7 -8 10 6 11 4
4 -6 -14 -22 -13 -36 2 -36 11 0 11 3 1 16 -11 14 -10 14 6 2 9 -7 17 -22 17
-32 0 -16 9 -23 31 -21 3 0 5 -10 5 -23 0 -13 -4 -21 -8 -19 -5 3 -5 10 -2 16
4 7 2 8 -4 4 -13 -8 -5 -36 10 -36 6 0 8 -6 5 -14 -3 -7 0 -19 6 -25 9 -9 8
-10 -7 -5 -15 6 -17 4 -11 -7 5 -7 10 -21 10 -29 2 -22 -44 -18 -63 6 -14 18
-14 18 -9 -5 4 -18 3 -21 -6 -12 -12 12 -28 15 -24 4 2 -9 -6 -13 -29 -13 -9
0 -12 5 -8 12 4 6 3 8 -4 4 -6 -3 -8 -18 -6 -32 3 -19 1 -25 -8 -22 -9 4 -13
-7 -14 -38 0 -37 1 -41 12 -26 11 14 11 11 4 -20 -4 -21 -4 -36 0 -33 5 3 17
-6 28 -20 11 -14 25 -25 32 -25 7 0 10 -7 6 -17 -4 -10 -4 -14 0 -11 3 4 13 0
21 -8 8 -8 18 -12 22 -9 5 2 6 -7 3 -22 -4 -19 -2 -24 8 -18 9 5 11 4 6 -3 -4
-7 -2 -12 4 -12 7 0 5 -7 -4 -16 -9 -8 -16 -20 -16 -25 0 -6 -4 -7 -10 -4 -14
9 -13 -8 2 -23 9 -9 7 -11 -9 -8 -16 4 -19 -1 -18 -25 2 -25 0 -27 -13 -16
-13 10 -15 9 -10 -10 4 -14 2 -22 -6 -20 -6 1 -10 -7 -8 -18 2 -14 0 -16 -6
-7 -4 6 -17 19 -28 28 -10 8 -13 12 -6 9 11 -6 12 -3 3 12 -6 13 -7 23 0 30 6
6 5 10 -4 10 -8 0 -14 -10 -14 -21 -1 -38 -3 -46 -13 -46 -5 0 -7 6 -4 14 6
16 -12 16 -35 2 -10 -6 -12 -5 -7 2 10 16 -7 15 -23 0 -11 -11 -12 -10 -6 0 5
11 -1 13 -26 11 -25 -3 -33 0 -31 11 2 10 0 11 -11 2 -8 -7 -18 -8 -22 -4 -5
4 -6 2 -2 -3 3 -6 -2 -19 -10 -30 -12 -15 -14 -16 -10 -3 3 9 0 19 -8 22 -9 3
-12 0 -9 -9 4 -9 -2 -13 -19 -11 -18 2 -24 -1 -20 -10 3 -8 10 -11 17 -7 6 4
5 -1 -3 -10 -11 -13 -17 -15 -28 -6 -11 10 -12 8 -7 -6 5 -13 4 -16 -5 -10
-10 6 -11 3 -2 -14 9 -17 9 -20 -3 -15 -14 5 -29 -10 -32 -33 -1 -7 3 -13 8
-13 6 0 3 -10 -8 -22 -10 -12 -14 -18 -7 -15 17 10 28 -13 13 -26 -10 -9 -11
-9 -6 0 5 9 2 11 -9 7 -9 -4 -12 -11 -8 -18 5 -7 0 -3 -10 7 -12 13 -17 15
-17 6 0 -8 -5 -6 -12 6 -16 29 -16 29 -35 14 -16 -13 -17 -12 -5 3 17 22 6 44
-13 28 -11 -9 -13 -8 -10 8 3 16 -1 19 -17 14 -14 -3 -19 -1 -14 6 7 11 -13
17 -38 13 -5 -1 -6 5 -2 14 3 9 2 13 -4 10 -6 -3 -10 -2 -10 3 0 6 -7 13 -16
16 -15 6 -15 4 -3 -11 13 -16 12 -17 -4 -4 -9 7 -17 21 -17 30 0 14 -2 14 -10
1 -8 -13 -10 -13 -10 1 0 27 -28 30 -45 6 -19 -27 -19 -37 1 -51 13 -10 13
-12 -5 -12 -11 0 -17 4 -15 8 3 4 -2 9 -10 9 -9 1 -21 2 -28 3 -6 0 -13 8 -15
16 -4 13 -3 13 6 0 6 -8 11 -10 11 -5 0 6 -10 19 -22 29 -20 18 -21 18 -14 0
7 -17 6 -17 -13 0 -16 14 -24 16 -34 8 -10 -9 -14 -8 -14 3 0 8 5 11 10 8 6
-3 7 -1 4 5 -4 5 -15 9 -25 8 -16 -3 -17 -33 -19 -439 -2 -394 -1 -437 14
-437 13 0 14 -2 2 -17 -10 -11 -10 -14 -2 -9 8 4 13 2 13 -4 0 -6 5 -8 10 -5
7 4 9 -3 6 -19 -3 -15 -1 -24 5 -21 5 4 7 11 4 16 -4 5 -1 9 6 9 6 0 9 -8 6
-19 -4 -16 0 -18 21 -15 20 4 23 2 15 -8 -8 -9 -5 -18 10 -33 11 -11 17 -15
14 -9 -3 6 0 11 7 11 7 0 12 -9 12 -20 -1 -11 5 -21 12 -23 7 -1 8 0 2 3 -12
5 -14 23 -2 23 4 0 13 -9 19 -19 10 -16 9 -22 -4 -33 -14 -11 -16 -11 -9 1 6
9 5 12 -5 9 -8 -3 -13 -11 -11 -17 1 -7 -2 -10 -8 -6 -6 3 -8 10 -6 14 3 4 -2
8 -10 8 -8 0 -13 -6 -10 -13 3 -8 -2 -11 -17 -9 -21 4 -21 4 -3 -10 11 -8 17
-15 13 -15 -4 0 -3 -10 4 -21 7 -13 7 -19 1 -15 -6 3 -13 2 -17 -3 -3 -5 -14
-9 -25 -8 -10 1 -16 5 -14 9 3 4 -1 8 -8 9 -7 0 -20 2 -30 4 -14 3 -16 -8 -16
-82 0 -69 2 -83 14 -79 11 4 12 2 4 -14 -14 -25 -13 -37 2 -22 16 16 29 15 25
0 -1 -7 4 -12 12 -10 12 3 12 0 1 -13 -11 -13 -10 -14 5 -9 13 5 16 4 11 -4
-4 -7 -1 -12 8 -12 10 0 13 -6 10 -15 -4 -11 -2 -13 9 -9 8 3 18 0 22 -5 3 -6
12 -8 18 -4 8 4 8 2 -1 -9 -10 -13 -10 -17 3 -22 11 -4 14 -2 9 6 -5 7 -3 8 5
4 7 -5 10 -15 7 -23 -5 -13 -2 -13 21 2 16 10 22 12 16 4 -17 -17 -16 -26 1
-32 11 -4 13 -1 10 11 -5 15 -4 15 9 -1 14 -17 16 -17 25 -1 9 16 10 15 17 -5
5 -18 13 -22 31 -18 21 4 22 2 12 -11 -12 -14 -10 -14 12 -2 22 12 24 11 13
-2 -7 -8 -11 -17 -8 -19 2 -3 -7 -6 -21 -7 -17 -1 -23 2 -18 10 4 7 3 8 -5 4
-6 -4 -8 -12 -5 -18 5 -7 1 -9 -9 -5 -17 7 -41 -15 -29 -28 4 -5 2 -5 -5 -1
-7 4 -9 14 -6 23 6 15 5 16 -9 3 -9 -8 -14 -18 -11 -22 2 -5 -4 -8 -14 -8 -10
0 -26 -9 -36 -20 -9 -11 -12 -20 -6 -20 5 0 8 -4 5 -9 -7 -10 28 -43 37 -35 3
4 13 -1 22 -10 9 -9 21 -16 28 -16 6 0 2 7 -9 16 -18 15 -18 15 2 5 12 -6 24
-7 28 -3 4 3 4 -2 0 -12 -6 -15 -4 -17 6 -11 21 13 61 15 53 2 -4 -7 0 -8 12
-3 14 5 16 4 7 -7 -9 -11 -7 -13 11 -11 12 1 22 3 22 4 0 1 13 3 30 5 19 3 25
1 16 -4 -11 -7 -11 -9 0 -14 11 -4 11 -6 1 -6 -8 -1 -10 -6 -6 -14 4 -6 4 -9
-1 -5 -4 4 -14 0 -22 -10 -12 -16 -13 -16 -7 3 6 20 5 20 -10 1 -9 -11 -16
-16 -16 -12 0 5 -7 3 -15 -4 -9 -7 -13 -20 -10 -29 3 -11 0 -10 -10 3 -12 16
-15 17 -15 4 0 -9 -8 -15 -17 -14 -10 0 -18 -3 -18 -9 0 -5 -6 -19 -14 -30 -9
-15 -11 -16 -7 -2 7 21 -10 23 -18 1 -4 -10 -13 -13 -28 -9 -17 5 -19 4 -9 -3
8 -6 12 -19 8 -31 -6 -22 23 -47 39 -33 5 4 3 0 -4 -9 -11 -14 -9 -16 18 -13
28 3 30 2 16 -12 -22 -21 -20 -27 4 -14 11 6 20 7 20 1 0 -5 7 -12 16 -15 8
-3 12 -2 9 4 -3 6 1 7 9 4 9 -3 13 -10 10 -15 -7 -13 57 -8 76 5 8 6 12 7 8 2
-4 -5 -3 -17 3 -28 9 -16 13 -17 27 -6 14 11 15 11 9 -6 -6 -16 -5 -17 8 -6
12 10 15 9 15 -6 0 -13 3 -15 8 -7 5 8 13 9 22 3 13 -8 13 -10 1 -10 -8 0 -12
-3 -8 -6 3 -3 12 -2 19 2 19 12 48 12 55 1 3 -6 1 -7 -5 -3 -8 5 -10 1 -5 -9
4 -11 8 -13 13 -6 3 7 23 13 43 14 31 3 35 1 24 -12 -10 -12 -9 -13 1 -7 16
10 44 -12 35 -28 -4 -6 1 -5 10 3 10 8 20 11 24 7 3 -3 1 -6 -5 -6 -7 0 -12
-4 -12 -10 0 -5 3 -9 8 -9 18 3 33 -2 28 -9 -3 -5 1 -9 9 -9 8 0 12 4 9 9 -3
4 2 8 11 8 9 0 13 -4 10 -10 -3 -5 0 -10 9 -10 8 0 16 6 19 13 2 6 4 -2 3 -19
-1 -27 -4 -31 -18 -23 -14 8 -16 6 -11 -7 4 -12 3 -15 -5 -10 -19 11 -14 -5 5
-20 17 -13 17 -14 -2 -7 -17 6 -18 5 -7 -9 9 -11 10 -18 2 -23 -6 -3 -7 -11
-4 -17 4 -7 2 -8 -5 -4 -9 6 -9 12 1 24 10 13 7 13 -9 -1 -12 -11 -19 -25 -16
-33 3 -8 -3 -17 -13 -20 -28 -10 -54 -35 -48 -45 5 -8 -10 -13 -29 -10 -12 2
-8 -17 6 -23 6 -3 -1 -2 -17 1 -18 4 -27 2 -23 -4 3 -5 -4 -9 -16 -9 -13 1
-21 -4 -20 -11 5 -21 -7 -15 -17 10 -7 18 -9 19 -9 3 -1 -12 -6 -16 -16 -12
-10 3 -15 -1 -15 -12 0 -13 -2 -14 -9 -4 -5 8 -23 13 -42 12 -49 -3 -61 -1
-55 8 3 5 -1 9 -9 9 -8 0 -12 -4 -10 -8 7 -10 -22 -5 -32 6 -4 4 -1 5 7 0 11
-6 11 -3 -2 10 -14 15 -20 16 -32 5 -13 -10 -16 -10 -16 3 0 11 -7 15 -21 12
-15 -3 -19 0 -15 10 6 17 -10 30 -19 15 -3 -5 -12 -10 -18 -10 -8 0 -8 3 -2 8
18 13 14 28 -8 28 -19 0 -22 -6 -23 -48 -1 -26 3 -48 8 -48 5 0 6 5 3 10 -3 6
-1 10 4 10 16 0 13 -11 -6 -32 -14 -15 -14 -19 -3 -16 9 2 16 -6 18 -20 2 -12
8 -20 13 -17 13 9 11 -9 -3 -24 -11 -11 -9 -12 11 -6 21 7 23 5 18 -16 -6 -23
-5 -23 8 -5 15 19 15 19 15 -2 0 -20 2 -21 22 -11 18 10 20 9 15 -4 -5 -13 -2
-15 18 -7 24 9 36 -3 15 -13 -6 -3 -5 -4 2 -3 7 2 21 -1 30 -6 11 -5 18 -5 18
1 0 5 7 12 16 15 14 5 15 4 5 -8 -9 -11 -9 -16 0 -22 8 -5 9 -3 4 6 -6 10 -3
12 14 7 18 -4 21 -2 16 11 -5 13 -2 12 15 -3 17 -15 23 -16 33 -5 10 10 9 11
-2 5 -9 -5 -12 -4 -7 3 5 9 14 8 31 -4 18 -11 25 -12 31 -3 4 8 3 9 -4 5 -7
-4 -12 -2 -12 3 0 12 13 14 24 4 11 -12 37 -12 29 -1 -4 7 2 9 15 6 12 -4 20
-2 17 2 -3 5 -1 11 5 15 5 3 10 1 10 -6 0 -7 9 -5 26 6 15 9 24 13 21 8 -3 -5
3 -9 14 -9 10 0 19 5 20 11 0 5 4 1 9 -10 8 -18 9 -18 9 5 1 17 4 21 10 12 4
-8 19 -11 34 -8 15 2 29 0 33 -5 3 -5 0 -8 -8 -7 -8 2 -12 -5 -10 -17 2 -16 1
-17 -7 -5 -5 8 -7 18 -4 24 3 5 1 6 -6 2 -6 -4 -9 -11 -6 -16 3 -4 -2 -13 -10
-20 -12 -10 -13 -16 -3 -28 10 -13 10 -14 1 -8 -8 4 -13 2 -13 -4 0 -6 -4 -8
-10 -5 -6 4 -7 -1 -3 -11 5 -13 3 -16 -10 -11 -12 4 -14 2 -10 -10 5 -12 3
-14 -8 -8 -12 7 -12 6 -1 -7 10 -13 10 -18 1 -24 -8 -5 -9 -3 -4 6 5 8 3 11
-6 8 -8 -3 -13 -12 -13 -21 1 -10 -5 -14 -17 -12 -16 3 -17 1 -9 -15 9 -16 7
-18 -11 -15 -17 4 -19 2 -8 -11 10 -12 9 -13 -6 -8 -13 6 -16 4 -10 -5 6 -10
2 -11 -16 -7 -22 6 -23 6 -4 -5 19 -12 19 -12 0 -20 -11 -4 1192 -8 2673 -8
l2692 -1 0 1128 c0 750 -4 1122 -10 1112 -9 -13 -12 -13 -20 1 -6 11 -18 15
-35 11 -26 -4 -35 11 -13 24 7 5 8 3 3 -6 -5 -9 -4 -11 3 -6 7 4 12 13 12 20
0 7 10 12 23 11 12 -1 25 3 29 9 13 18 9 54 -6 59 -17 7 -27 -14 -21 -43 4
-19 2 -20 -11 -9 -21 17 -44 20 -41 6 1 -7 -6 -11 -15 -11 -10 1 -14 -4 -11
-13 5 -11 9 -11 24 3 11 9 19 13 19 8 0 -5 -8 -14 -18 -20 -14 -9 -22 -8 -37
2 -23 17 -39 18 -29 2 4 -7 3 -8 -5 -4 -9 6 -9 11 1 24 10 12 10 14 1 8 -7 -4
-13 -2 -13 3 0 6 -5 11 -11 11 -5 0 -7 -5 -3 -12 4 -6 -4 -3 -18 8 -14 10 -23
21 -19 24 9 7 8 27 -3 37 -5 5 -6 3 -2 -5 4 -7 1 -12 -7 -12 -8 0 -17 7 -21
15 -3 8 0 15 7 15 8 0 7 4 -3 9 -8 6 -17 8 -22 5 -11 -7 -48 28 -41 39 4 6 -1
8 -10 4 -10 -3 -17 -2 -17 3 0 15 36 12 49 -3 6 -8 8 -17 4 -20 -3 -4 -1 -7 6
-7 7 0 11 7 8 14 -4 10 -1 13 8 9 8 -3 13 -9 10 -14 -7 -10 35 -34 53 -31 6 2
12 -5 13 -15 0 -16 1 -16 9 2 8 19 9 19 9 -3 1 -13 5 -20 11 -17 6 4 7 11 4
17 -4 6 4 3 18 -8 14 -10 24 -22 22 -26 -5 -8 31 -2 48 8 8 5 9 2 5 -9 -7 -19
8 -23 19 -5 4 6 2 14 -4 16 -7 2 -10 7 -8 11 3 4 -1 8 -9 8 -8 0 -12 -4 -9 -9
10 -15 -8 -8 -25 10 -9 10 -24 18 -33 19 -40 2 -43 3 -28 13 8 5 10 10 4 10
-5 0 -15 -5 -22 -12 -9 -9 -12 -9 -13 2 -1 8 -1 19 0 24 1 5 -4 4 -12 -3 -12
-9 -20 -6 -43 18 -16 17 -35 28 -46 26 -10 -2 -18 0 -18 5 0 5 -9 12 -20 15
-11 4 -17 11 -14 17 4 7 2 8 -5 4 -8 -6 -9 -12 -2 -20 8 -9 7 -13 -3 -13 -9 0
-13 9 -11 24 1 13 -2 26 -8 30 -6 3 -7 1 -3 -5 4 -7 2 -12 -3 -12 -6 0 -11 6
-11 14 0 8 -9 18 -20 21 -11 4 -18 11 -15 16 9 13 -9 11 -25 -3 -8 -7 -6 -2 5
12 11 14 16 22 11 18 -5 -4 -15 -3 -23 4 -11 9 -12 7 -6 -8 6 -16 5 -17 -9 -4
-9 8 -14 18 -11 23 2 4 -1 7 -6 7 -6 0 -10 6 -8 13 1 7 -6 11 -17 9 -10 -2
-16 0 -13 5 6 10 -19 34 -27 25 -4 -3 -4 2 0 12 6 16 4 18 -15 13 -18 -4 -20
-3 -10 9 9 11 9 14 0 14 -7 0 -9 5 -6 10 3 6 -3 10 -14 10 -12 0 -21 5 -21 11
0 5 6 7 13 4 6 -4 4 0 -5 8 -16 13 -16 15 0 32 9 10 12 15 5 11 -7 -4 -10 1
-9 11 3 19 46 28 46 10 0 -6 5 -5 13 1 10 9 17 6 29 -8 9 -10 13 -22 10 -26
-4 -4 -1 -4 6 0 7 4 10 12 7 17 -4 5 -2 9 4 9 5 0 13 -10 16 -21 4 -12 10 -17
14 -12 7 12 42 13 35 1 -5 -8 9 -11 49 -11 9 0 17 -4 17 -10 0 -5 8 -3 17 4
15 12 16 12 10 -5 -7 -17 -6 -18 17 -3 22 15 25 14 45 -4 20 -19 27 -13 21 16
-1 5 7 2 17 -6 23 -21 53 -21 45 -1 -3 10 -1 13 6 8 7 -4 12 -1 12 8 0 15 11
20 35 17 6 -1 1 6 -9 14 -19 15 -19 15 2 15 19 0 21 2 10 14 -7 8 -17 11 -23
8 -5 -3 -4 2 4 12 12 15 12 17 0 14 -8 -2 -20 -12 -27 -23 -13 -20 -13 -20 -7
0 3 11 3 16 -1 12 -4 -4 -14 -1 -23 6 -14 10 -14 10 -3 -5 9 -11 10 -18 2 -23
-5 -3 -10 -1 -10 6 0 8 -4 8 -16 -2 -13 -10 -17 -10 -24 0 -4 8 -10 9 -14 3
-9 -15 -59 -5 -73 14 -7 10 -13 14 -13 9 0 -4 -9 0 -20 10 -19 17 -20 17 -20
0 0 -17 -1 -18 -12 -2 -7 9 -25 18 -40 19 -22 2 -25 5 -15 17 9 12 9 13 0 7
-7 -4 -13 -3 -13 1 0 5 6 15 13 22 7 9 8 12 0 7 -17 -9 -10 21 10 44 11 14 13
20 4 20 -8 0 -7 4 3 10 13 9 13 10 0 10 -13 0 -13 1 0 10 12 8 12 10 -5 10
-17 0 -17 2 -5 10 14 9 7 14 -13 11 -5 -1 -6 3 -2 9 3 5 14 10 23 10 13 0 13
2 -4 16 -10 8 -14 13 -7 10 6 -4 14 -2 18 4 3 5 1 10 -5 10 -6 0 -9 4 -6 9 3
5 -1 12 -10 15 -10 4 -13 2 -8 -7 5 -9 4 -9 -6 0 -7 6 -19 9 -28 6 -9 -4 -13
-2 -9 4 3 5 -1 10 -9 10 -9 0 -13 -6 -9 -15 4 -11 -1 -10 -22 3 -22 15 -25 15
-15 3 9 -11 10 -18 2 -23 -5 -3 -10 -2 -10 3 0 17 -33 9 -38 -10 -2 -10 -9
-18 -14 -18 -6 0 -8 7 -4 15 8 22 -2 18 -29 -11 -21 -22 -24 -23 -21 -7 3 12
-1 20 -9 20 -7 0 -11 -7 -8 -16 3 -12 2 -11 -7 2 -6 9 -17 14 -23 11 -9 -5 -9
-4 0 6 13 14 7 40 -9 40 -6 0 -4 -8 3 -17 13 -16 12 -17 -3 -4 -10 7 -18 20
-18 27 0 8 -5 14 -11 14 -6 0 -9 9 -6 19 3 13 0 18 -7 15 -7 -3 -21 5 -32 17
-10 13 -14 19 -7 16 6 -4 15 -2 19 4 4 7 3 9 -3 6 -5 -3 -17 7 -26 23 -13 21
-23 27 -35 23 -15 -6 -16 -5 -2 12 13 17 13 18 -1 13 -13 -5 -16 -2 -11 14 3
13 1 19 -5 15 -6 -4 -9 6 -8 23 2 36 15 53 15 21 0 -19 4 -22 21 -18 16 4 18
3 9 -8 -9 -10 -5 -13 18 -11 23 2 28 -2 24 -13 -4 -10 -1 -13 11 -8 9 3 17 2
17 -4 0 -6 5 -7 12 -3 7 5 9 2 5 -8 -8 -22 2 -29 24 -17 15 7 19 6 19 -6 0
-18 26 -20 33 -2 3 6 6 2 6 -10 1 -13 6 -23 12 -23 5 0 7 6 3 13 -4 6 3 3 16
-8 13 -11 20 -15 17 -8 -5 8 0 11 12 10 16 -1 18 -4 8 -16 -10 -12 -9 -13 11
-2 12 6 22 8 22 2 0 -5 7 -12 16 -15 14 -5 15 -4 4 9 -11 13 -10 14 4 9 9 -3
16 -10 16 -14 0 -6 80 -6 88 0 7 7 28 4 34 -5 5 -6 8 -6 8 3 0 6 5 12 11 12 5
0 8 -4 5 -8 -7 -12 26 -11 41 0 7 6 11 14 8 18 -3 4 3 7 13 6 9 0 16 4 15 11
-2 7 4 10 13 6 9 -3 14 0 12 8 -2 7 3 14 10 15 6 1 15 2 18 3 4 0 1 8 -6 16
-11 13 -10 14 2 10 12 -5 15 0 12 20 -2 21 1 25 14 21 15 -5 15 -5 0 7 -11 9
-14 17 -8 23 6 6 5 15 -1 24 -9 12 -10 12 -5 -3 4 -13 2 -16 -7 -10 -6 4 -18
8 -25 9 -11 2 -11 0 0 -13 12 -15 11 -15 -9 -4 -16 8 -23 8 -23 1 0 -6 -4 -8
-10 -5 -5 3 -10 0 -10 -7 0 -9 -3 -9 -10 2 -9 13 -10 13 -10 0 0 -13 -1 -13
-10 0 -9 13 -10 13 -10 0 0 -13 -1 -13 -10 0 -5 8 -10 10 -10 4 0 -6 -7 -11
-15 -11 -10 0 -14 6 -10 16 3 11 0 10 -10 -3 -14 -18 -16 -18 -33 -3 -10 9
-24 17 -30 17 -6 0 -16 8 -22 18 -11 16 -11 16 -6 0 3 -10 1 -18 -4 -18 -6 0
-10 7 -10 16 0 8 -5 12 -10 9 -6 -3 -13 1 -16 10 -5 12 -9 13 -20 4 -11 -9
-14 -9 -14 0 0 7 -4 9 -10 6 -5 -3 -10 1 -10 9 0 20 -17 29 -26 15 -5 -8 -3
-9 6 -4 9 6 11 4 5 -5 -6 -10 -11 -9 -21 5 -7 10 -11 22 -7 28 3 5 -7 1 -23
-9 -16 -10 -24 -12 -17 -5 13 15 6 44 -8 35 -5 -3 -6 -11 -3 -17 4 -7 -5 -1
-19 12 -15 14 -27 30 -27 38 0 7 -4 13 -10 13 -5 0 -7 -8 -4 -17 5 -17 5 -17
-6 0 -6 9 -15 15 -20 12 -5 -3 -12 0 -16 6 -4 8 -3 9 4 5 20 -12 13 3 -12 31
-14 15 -23 30 -20 35 3 5 2 8 -3 7 -15 -4 -43 13 -37 23 3 5 -2 8 -11 6 -13
-2 -19 5 -21 27 -6 51 -7 54 -16 49 -5 -3 -5 -11 -1 -17 4 -7 -1 -6 -11 2 -10
8 -15 23 -13 33 3 10 1 16 -4 12 -5 -3 -9 0 -9 6 0 7 -7 10 -15 6 -8 -3 -15
-3 -15 0 0 2 10 9 23 14 22 9 22 9 1 9 -12 1 -25 8 -28 17 -6 15 -4 15 11 3
10 -8 6 3 -9 23 -20 26 -24 38 -15 42 6 4 2 4 -10 2 -20 -4 -21 -2 -11 17 10
20 10 21 -6 8 -14 -12 -16 -12 -10 4 5 13 4 16 -5 11 -6 -4 -11 -4 -10 1 1 4
1 10 -1 13 -1 3 -4 16 -6 30 -2 13 -9 27 -14 30 -5 3 -11 22 -14 41 -2 18 -8
35 -15 35 -6 1 -15 2 -20 3 -5 0 -7 10 -4 21 3 11 0 20 -6 20 -6 0 -11 7 -11
16 0 9 -5 12 -12 8 -9 -5 -9 -2 1 9 8 11 9 17 3 17 -6 0 -9 7 -6 15 5 11 2 14
-12 8 -18 -6 -18 -6 -1 14 14 16 15 23 6 29 -8 4 -10 3 -5 -4 4 -7 1 -12 -7
-12 -10 0 -13 7 -10 20 7 26 18 25 37 -2 9 -12 16 -17 16 -10 0 6 0 14 0 17 0
3 -3 5 -7 6 -13 1 -43 31 -43 43 0 6 5 5 12 -2 7 -7 16 -12 21 -12 5 0 -2 9
-16 20 -14 11 -29 20 -34 20 -4 0 -1 -5 7 -10 8 -5 10 -10 4 -10 -6 0 -18 8
-25 17 -10 11 -10 14 -1 9 18 -11 10 22 -18 71 -14 24 -31 43 -39 43 -11 0
-11 3 0 17 10 11 10 14 2 9 -8 -4 -13 -2 -13 4 0 6 -5 8 -11 4 -8 -4 -8 -1 -1
12 7 14 6 22 -3 31 -7 6 -15 10 -17 7 -3 -2 -5 3 -5 11 0 8 4 12 9 9 4 -3 8
-1 8 5 0 5 -6 12 -12 14 -8 4 -7 6 3 6 9 1 20 9 24 19 6 16 8 16 21 -3 l16
-20 -4 20 c-2 14 2 19 15 17 9 -2 17 2 17 9 0 8 4 8 15 -1 13 -11 14 -10 9 3
-4 12 0 14 18 10 19 -4 20 -3 8 7 -12 9 -10 11 12 7 21 -3 26 0 23 14 -3 12 1
16 11 12 7 -3 11 -10 7 -17 -3 -6 0 -5 8 2 12 11 12 14 -1 23 -13 9 -12 10 3
5 26 -9 43 -13 35 -9 -15 9 -8 22 9 16 11 -4 14 -3 9 5 -4 7 -1 12 8 12 9 0
16 5 16 11 0 5 -4 8 -8 5 -5 -3 -9 9 -10 26 -1 24 2 28 8 18 6 -8 10 -10 10
-4 0 18 -12 25 -25 14 -9 -8 -12 -3 -9 20 3 22 0 29 -8 24 -8 -5 -9 -2 -4 11
5 15 4 16 -9 5 -13 -11 -14 -10 -9 5 5 12 4 16 -3 12 -6 -4 -14 0 -17 9 -3 8
-11 12 -17 8 -8 -4 -9 -3 -5 5 6 9 11 9 24 -1 9 -7 5 2 -8 20 -13 17 -27 32
-32 32 -4 0 -8 7 -8 15 0 9 -11 20 -24 25 -13 5 -33 19 -44 30 -11 12 -25 19
-31 16 -7 -5 -8 -1 -4 10 4 10 2 15 -4 11 -5 -3 -10 0 -10 7 0 8 6 12 13 9 6
-2 15 1 20 8 5 8 3 10 -7 5 -8 -4 -6 -1 4 7 9 8 17 19 17 26 0 6 5 11 11 11 5
0 7 6 3 13 -5 8 -2 7 9 -2 15 -12 17 -12 11 4 -4 10 -3 16 2 13 20 -13 42 30
22 44 -9 7 -7 8 9 5 17 -4 21 -1 18 14 -2 11 1 19 6 19 6 0 7 5 3 12 -5 8 -2
9 11 4 16 -6 16 -4 4 11 -8 9 -9 14 -2 10 6 -4 14 -3 18 3 3 5 1 10 -4 10 -6
0 -11 5 -11 11 0 5 5 7 10 4 6 -3 10 3 10 15 0 14 4 19 13 14 7 -5 6 0 -3 11
-9 11 -10 16 -2 11 9 -5 11 2 10 27 -2 19 -8 34 -16 34 -7 0 -10 -7 -8 -14 3
-8 1 -11 -4 -8 -6 3 -10 12 -10 20 0 10 -11 13 -40 11 -22 -2 -43 1 -47 7 -4
6 -1 7 7 2 9 -5 11 -4 6 4 -4 6 -12 9 -17 6 -5 -4 -9 -3 -9 2 0 4 -22 8 -50 8
-27 0 -50 -3 -50 -6 0 -4 -8 -10 -17 -14 -15 -5 -16 -4 -5 6 6 7 12 18 12 24
0 6 -3 6 -8 -2 -10 -16 -48 -21 -44 -5 2 10 -2 10 -18 2 -11 -6 -26 -8 -32 -4
-6 4 -8 3 -5 -2 3 -6 -4 -16 -16 -24 -19 -12 -20 -11 -10 2 11 12 9 14 -7 13
-11 -1 -26 -8 -33 -15 -10 -12 -9 -12 6 -1 9 8 17 9 17 3 0 -16 -26 -22 -40
-9 -9 8 -11 9 -7 1 4 -7 -1 -18 -10 -25 -14 -12 -15 -11 -9 11 6 24 6 24 -9
-2 -9 -16 -18 -28 -21 -28 -3 0 -2 5 1 10 3 6 1 10 -5 10 -6 0 -9 4 -6 8 3 5
-1 9 -9 9 -11 0 -12 -4 -3 -14 6 -7 8 -16 4 -20 -3 -3 -6 -1 -6 6 0 7 -4 10
-9 7 -5 -4 -8 5 -6 19 1 14 -2 28 -8 32 -6 3 -7 1 -3 -5 4 -7 2 -12 -3 -12 -6
0 -11 5 -11 11 0 5 -6 7 -12 3 -8 -5 -7 0 2 11 8 10 10 16 3 12 -6 -4 -18 0
-26 8 -9 8 -21 15 -27 15 -7 0 -9 7 -6 16 6 15 4 15 -11 3 -11 -9 -14 -10 -9
-1 4 6 3 12 -2 12 -6 0 -13 7 -16 16 -5 14 -4 15 8 5 11 -9 16 -9 22 0 4 8 3
9 -4 5 -7 -4 -12 -4 -13 1 0 4 -2 18 -5 31 -2 14 0 21 6 17 5 -3 10 -1 10 4 0
6 -5 11 -11 11 -6 0 -8 7 -5 15 3 9 -1 18 -9 21 -8 4 -15 10 -15 15 0 4 8 5
17 2 15 -6 16 -5 3 9 -8 8 -22 13 -30 11 -9 -3 -11 -2 -4 4 6 4 14 17 17 27 7
17 6 17 -9 5 -16 -13 -16 -12 -6 8 9 16 9 24 0 29 -7 5 -8 3 -3 -6 6 -9 4 -11
-4 -6 -7 5 -10 15 -7 23 5 11 1 13 -16 7 -21 -6 -22 -5 -8 11 9 11 10 16 3 11
-9 -5 -13 -1 -14 11 0 16 -1 16 -9 -2 -8 -18 -9 -19 -9 -1 -1 12 -6 16 -17 12
-12 -4 -14 -1 -9 14 4 11 3 20 -2 19 -32 -6 -52 2 -48 20 2 10 -2 18 -8 18
-30 -1 -48 4 -43 11 2 4 -9 8 -26 9 -21 0 -27 -2 -19 -10z m-889 -107 c0 -5
-5 -10 -11 -10 -5 0 -7 5 -4 10 3 6 8 10 11 10 2 0 4 -4 4 -10z m84 -6 c3 -8
2 -12 -4 -9 -6 3 -10 10 -10 16 0 14 7 11 14 -7z m-1050 -132 c3 -5 -1 -9 -9
-9 -8 0 -12 4 -9 9 3 4 7 8 9 8 2 0 6 -4 9 -8z m2640 -218 c3 -8 2 -12 -4 -9
-6 3 -10 10 -10 16 0 14 7 11 14 -7z m-3310 -222 c3 -5 -1 -9 -9 -9 -8 0 -12
4 -9 9 3 4 7 8 9 8 2 0 6 -4 9 -8z m-318 -487 c-1 -8 -8 -21 -16 -28 -10 -10
-11 -9 -4 3 5 8 9 18 10 23 3 14 4 17 8 17 2 0 3 -7 2 -15z m3609 -291 c9 -15
12 -23 6 -20 -11 7 -35 46 -28 46 3 0 12 -12 22 -26z m30 -43 c3 -5 2 -12 -3
-15 -5 -3 -9 1 -9 9 0 17 3 19 12 6z m35 -89 c0 -4 -9 -8 -20 -9 -16 -1 -17 1
-7 12 12 13 27 11 27 -3z m83 -217 c-3 -9 -8 -14 -10 -11 -3 3 -2 9 2 15 9 16
15 13 8 -4z m-3906 -341 c-3 -3 -12 -4 -19 -1 -8 3 -5 6 6 6 11 1 17 -2 13 -5z
m4103 -24 c0 -5 -2 -10 -4 -10 -3 0 -8 5 -11 10 -3 6 -1 10 4 10 6 0 11 -4 11
-10z m71 -86 c13 -14 17 -23 9 -19 -13 5 -46 45 -37 45 2 0 14 -11 28 -26z
m-4198 -48 c4 -10 1 -13 -8 -9 -8 3 -12 9 -9 14 7 12 11 11 17 -5z m4208 -323
c13 -16 12 -17 -3 -4 -10 7 -18 15 -18 17 0 8 8 3 21 -13z m333 -11 c3 -5 -1
-9 -9 -9 -8 0 -12 4 -9 9 3 4 7 8 9 8 2 0 6 -4 9 -8z m306 -512 c0 -5 -5 -10
-11 -10 -5 0 -7 5 -4 10 3 6 8 10 11 10 2 0 4 -4 4 -10z m-5576 -18 c3 -5 -1
-9 -9 -9 -8 0 -12 4 -9 9 3 4 7 8 9 8 2 0 6 -4 9 -8z m306 -78 c0 -8 -5 -12
-10 -9 -6 4 -8 11 -5 16 9 14 15 11 15 -7z m5216 -216 c3 -4 -1 -5 -10 -4 -8
1 -18 5 -22 8 -3 4 1 5 10 4 8 -1 18 -5 22 -8z m39 -38 c4 -6 11 -7 17 -4 7 4
8 2 4 -5 -6 -9 -12 -9 -24 1 -10 7 -19 14 -21 15 -2 2 1 3 7 3 6 0 14 -5 17
-10z m131 -61 c3 -6 -5 -3 -20 6 -14 10 -26 19 -26 22 0 7 39 -17 46 -28z m84
-29 c0 -5 -2 -10 -4 -10 -3 0 -8 5 -11 10 -3 6 -1 10 4 10 6 0 11 -4 11 -10z
m-5815 -1180 c-3 -5 -1 -10 4 -10 6 0 11 -5 11 -11 0 -8 -5 -8 -15 1 -13 11
-12 30 1 30 3 0 2 -4 -1 -10z m190 -150 c3 -5 -1 -10 -10 -10 -9 0 -13 5 -10
10 3 6 8 10 10 10 2 0 7 -4 10 -10z m348 -545 c-3 -9 -8 -14 -10 -11 -3 3 -2
9 2 15 9 16 15 13 8 -4z m-343 -49 c0 -2 -7 -9 -15 -16 -13 -11 -14 -10 -9 4
5 14 24 23 24 12z m440 -196 c0 -5 -5 -10 -11 -10 -5 0 -7 5 -4 10 3 6 8 10
11 10 2 0 4 -4 4 -10z"/>
<path d="M2736 5847 c3 -10 9 -15 12 -12 3 3 0 11 -7 18 -10 9 -11 8 -5 -6z"/>
<path d="M2360 5790 c-9 -6 -10 -10 -3 -10 6 0 15 5 18 10 8 12 4 12 -15 0z"/>
<path d="M890 5590 c0 -5 5 -10 11 -10 5 0 7 5 4 10 -3 6 -8 10 -11 10 -2 0
-4 -4 -4 -10z"/>
<path d="M924 5591 c4 -6 16 -16 28 -22 15 -8 18 -8 14 0 -4 6 -16 16 -28 22
-15 8 -18 8 -14 0z"/>
<path d="M1856 5588 c3 -5 10 -6 15 -3 13 9 11 12 -6 12 -8 0 -12 -4 -9 -9z"/>
<path d="M1443 5295 c0 -8 4 -12 9 -9 5 3 6 10 3 15 -9 13 -12 11 -12 -6z"/>
<path d="M885 5240 c-3 -5 -1 -10 4 -10 6 0 11 5 11 10 0 6 -2 10 -4 10 -3 0
-8 -4 -11 -10z"/>
<path d="M1270 5079 c0 -5 -4 -8 -8 -5 -5 3 -9 -1 -9 -9 0 -13 4 -12 19 2 21
18 22 23 8 23 -5 0 -10 -5 -10 -11z"/>
<path d="M4756 5058 c3 -4 9 -8 15 -8 5 0 9 4 9 8 0 5 -7 9 -15 9 -8 0 -12 -4
-9 -9z"/>
<path d="M4842 4280 c-7 -11 -9 -20 -4 -20 4 0 13 9 20 20 7 11 9 20 4 20 -4
0 -13 -9 -20 -20z"/>
<path d="M4860 4263 c0 -7 5 -15 10 -18 6 -4 8 -11 4 -16 -3 -5 0 -8 6 -7 7 2
14 -5 15 -15 2 -11 6 -22 9 -25 4 -3 5 4 3 16 -4 24 -47 84 -47 65z"/>
<path d="M4921 4209 c0 -9 6 -22 14 -29 10 -9 15 -9 15 -1 0 6 -4 11 -9 11 -5
0 -12 8 -14 18 -4 14 -5 14 -6 1z"/>
<path d="M4951 4151 c-9 -15 -7 -18 7 -17 9 0 16 -5 15 -11 -2 -7 0 -12 5 -12
4 1 14 1 22 0 13 -1 13 -2 0 -12 -10 -7 -11 -9 -2 -7 8 2 13 7 12 12 -1 5 4
13 12 18 9 7 8 8 -6 4 -19 -7 -61 26 -49 38 4 3 3 6 0 6 -3 0 -11 -8 -16 -19z"/>
<path d="M5017 4076 c-4 -11 -1 -13 10 -9 12 5 14 3 8 -8 -8 -12 -6 -12 8 0 9
7 17 19 17 25 0 6 -5 4 -10 -4 -6 -10 -10 -11 -10 -2 0 17 -17 15 -23 -2z"/>
<path d="M5063 4053 c-7 -2 -13 -9 -13 -14 0 -5 6 -8 13 -6 6 1 11 -4 10 -10
-2 -7 2 -13 7 -13 6 0 10 5 10 11 0 5 5 7 10 4 8 -5 7 -11 -1 -21 -7 -9 -8
-14 -3 -13 22 4 35 -2 28 -13 -4 -6 -3 -8 3 -5 12 7 36 -16 28 -26 -3 -4 -2
-5 1 -3 3 3 18 -8 32 -23 15 -15 21 -19 13 -9 -10 12 -10 18 -2 18 6 0 20 -15
31 -32 11 -18 20 -26 20 -18 0 11 2 12 8 3 5 -8 13 -9 22 -3 13 8 13 10 -1 10
-9 0 -31 13 -47 29 -23 21 -34 25 -43 17 -8 -8 -10 -5 -5 14 3 14 3 20 0 13
-4 -9 -12 -6 -28 10 -13 12 -22 25 -19 29 2 4 -7 13 -19 20 -22 11 -26 13 -45
17 -5 1 -1 6 7 11 16 10 4 12 -17 3z"/>
<path d="M4925 4020 c3 -5 8 -10 11 -10 2 0 4 5 4 10 0 6 -5 10 -11 10 -5 0
-7 -4 -4 -10z"/>
<path d="M5300 3871 c0 -6 4 -13 10 -16 6 -3 7 1 4 9 -7 18 -14 21 -14 7z"/>
<path d="M5276 3861 c-3 -5 1 -11 9 -14 9 -4 12 -1 8 9 -6 16 -10 17 -17 5z"/>
<path d="M5330 3844 c0 -8 -4 -12 -10 -9 -5 3 -10 2 -10 -4 0 -5 5 -13 10 -16
6 -3 10 -2 10 3 0 5 7 9 15 9 8 0 14 -7 13 -16 -3 -15 1 -17 36 -20 8 0 18
-11 21 -22 6 -17 9 -19 16 -8 7 12 12 12 29 1 19 -11 20 -11 8 7 -9 15 -16 17
-31 10 -15 -9 -18 -7 -15 8 2 14 -2 17 -22 15 -22 -4 -23 -2 -10 15 14 16 13
17 -1 5 -14 -10 -18 -10 -23 3 -3 9 -11 13 -18 9 -8 -5 -9 -2 -5 9 3 10 2 17
-3 17 -6 0 -10 -7 -10 -16z"/>
<path d="M925 3840 c-3 -5 -1 -10 4 -10 6 0 11 5 11 10 0 6 -2 10 -4 10 -3 0
-8 -4 -11 -10z"/>
<path d="M5497 3743 c4 -9 0 -11 -13 -7 -17 5 -17 4 1 -7 26 -17 55 -22 55 -8
0 5 10 -1 23 -15 15 -18 26 -23 36 -17 11 7 10 13 -9 32 l-22 24 12 -23 c18
-35 5 -37 -19 -4 -21 31 -74 51 -64 25z m39 -10 c-10 -11 -37 -12 -30 -2 3 5
12 9 21 9 9 0 13 -3 9 -7z"/>
<path d="M5618 3714 c7 -14 8 -24 1 -31 -6 -6 -5 -10 5 -10 16 0 13 34 -5 51
-9 8 -9 6 -1 -10z"/>
<path d="M5750 3701 c0 -6 4 -12 8 -15 5 -3 9 1 9 9 0 8 -4 15 -9 15 -4 0 -8
-4 -8 -9z"/>
<path d="M5650 3685 c0 -8 2 -15 4 -15 2 0 6 7 10 15 3 8 1 15 -4 15 -6 0 -10
-7 -10 -15z"/>
<path d="M5730 3689 c0 -5 -4 -7 -10 -4 -6 4 -7 -1 -3 -11 4 -11 8 -13 11 -6
2 7 8 10 13 7 5 -4 6 1 3 9 -7 18 -14 21 -14 5z"/>
<path d="M5676 3681 c-6 -10 24 -25 32 -16 3 3 0 5 -7 5 -7 0 -9 5 -6 10 3 6
2 10 -4 10 -5 0 -12 -4 -15 -9z"/>
<path d="M5255 3580 c3 -5 8 -10 11 -10 2 0 4 5 4 10 0 6 -5 10 -11 10 -5 0
-7 -4 -4 -10z"/>
<path d="M856 3413 c-6 -14 -5 -15 5 -6 7 7 10 15 7 18 -3 3 -9 -2 -12 -12z"/>
<path d="M5667 3296 c-10 -8 -14 -16 -10 -19 5 -3 14 3 21 14 14 22 13 23 -11
5z"/>
<path d="M5530 2995 c-7 -9 -8 -15 -2 -15 5 0 12 7 16 15 3 8 4 15 2 15 -2 0
-9 -7 -16 -15z"/>
<path d="M816 2913 c-6 -14 -5 -15 5 -6 7 7 10 15 7 18 -3 3 -9 -2 -12 -12z"/>
<path d="M5650 2882 c0 -15 28 -23 36 -9 4 7 4 9 -1 5 -4 -4 -14 -3 -22 3 -8
7 -13 8 -13 1z"/>
<path d="M5390 2836 c0 -2 7 -7 16 -10 8 -3 12 -2 9 4 -6 10 -25 14 -25 6z"/>
<path d="M5451 2824 c0 -11 3 -14 6 -6 3 7 2 16 -1 19 -3 4 -6 -2 -5 -13z"/>
<path d="M5691 2764 c0 -11 3 -14 6 -6 3 7 2 16 -1 19 -3 4 -6 -2 -5 -13z"/>
<path d="M5795 2340 c3 -5 8 -10 11 -10 2 0 4 5 4 10 0 6 -5 10 -11 10 -5 0
-7 -4 -4 -10z"/>
<path d="M295 1090 c3 -5 8 -10 11 -10 2 0 4 5 4 10 0 6 -5 10 -11 10 -5 0 -7
-4 -4 -10z"/>
<path d="M387 1069 c7 -7 15 -10 18 -7 3 3 -2 9 -12 12 -14 6 -15 5 -6 -5z"/>
</g>
</svg>
